<svg xmlns="http://www.w3.org/2000/svg" viewBox="0 0 841.9 595.3"><path fill="none" stroke="#231F20" stroke-width=".028" stroke-miterlimit="10" d="M820 433.8H21c-4.1 0-7.5-3.4-7.5-7.5V170.2c0-4.1 3.4-7.5 7.5-7.5h799c4.1 0 7.5 3.4 7.5 7.5v256.1c0 4.1-3.4 7.5-7.5 7.5z"/><g fill="none" stroke="#231F20" stroke-width=".028"><path d="M20.4 172.2h44.2v36H20.4zM33.9 226.2h44.2v36H33.9zM33.9 388.2h44.2v36H33.9zM40.7 280.2h44.2v36H40.7zM54.2 334.2h44.2v36H54.2zM74.4 172.2h44.2v36H74.4zM101.4 226.2h44.2v36h-44.2zM108.2 388.2h44.2v36h-44.2zM114.9 280.2h44.2v36h-44.2zM128.4 172.2h44.2v36h-44.2zM141.9 334.2h44.2v36h-44.2zM155.4 226.2h44.2v36h-44.2zM168.9 280.2h44.2v36h-44.2zM182.4 172.2h44.2v36h-44.2zM182.4 388.2h44.2v36h-44.2zM195.9 334.2h44.2v36h-44.2zM209.4 226.2h44.2v36h-44.2zM222.9 280.2h44.2v36h-44.2zM236.4 172.2h44.2v36h-44.2zM249.9 334.2h44.2v36h-44.2zM263.4 226.2h44.2v36h-44.2zM276.9 280.2h44.2v36h-44.2zM290.4 172.2h44.2v36h-44.2zM303.9 334.2h44.2v36h-44.2zM317.4 226.2h44.2v36h-44.2zM344.4 172.2h44.2v36h-44.2zM357.9 334.2h44.2v36h-44.2zM371.4 226.2h44.2v36h-44.2zM398.4 172.2h44.2v36h-44.2zM398.4 388.2h44.2v36h-44.2zM411.9 334.2h44.2v36h-44.2zM425.4 226.2h44.2v36h-44.2zM438.9 280.2h44.2v36h-44.2zM452.4 172.2h44.2v36h-44.2zM465.9 334.2h44.2v36h-44.2zM479.4 226.2h44.2v36h-44.2zM492.9 280.2h44.2v36h-44.2zM506.4 172.2h44.2v36h-44.2zM519.9 334.2h44.2v36h-44.2zM533.4 226.2h44.2v36h-44.2zM546.9 280.2h44.2v36h-44.2zM560.4 172.2h44.2v36h-44.2zM573.9 334.2h44.2v36h-44.2zM587.4 226.2h44.2v36h-44.2zM600.9 280.2h44.2v36h-44.2zM614.4 388.2h44.2v36h-44.2zM614.4 172.2h44.2v36h-44.2zM627.9 334.2h44.2v36h-44.2zM641.4 226.2h44.2v36h-44.2zM654.9 280.2h44.2v36h-44.2zM668.4 172.2h44.2v36h-44.2zM688.7 388.2h44.2v36h-44.2zM695.4 226.2h44.2v36h-44.2zM729.2 334.2h44.2v36h-44.2zM742.7 280.2h44.2v36h-44.2zM749.4 172.2h44.2v36h-44.2zM762.9 388.2h44.2v36h-44.2zM762.9 226.2h44.2v36h-44.2zM525 411.1h8.5v14.2H525zM693.8 361.1h8.5v14.2h-8.5zM720.6 307.1h8.5v14.2h-8.5zM734.3 199.1h8.5v14.2h-8.5zM800.2 199.1h8.5v14.2h-8.5zM800.2 307.1h8.5v14.2h-8.5zM800.2 361.1h8.5v14.2h-8.5zM307.6 411.1h8.5v14.2h-8.5zM112 361.1h8.5v14.2H112zM32.1 361.1h8.5v14.2h-8.5z"/><circle cx="753.7" cy="243.2" r="5.7"/><circle cx="556.6" cy="405.6" r="5.7"/><path d="M384.9 280.2v15.2c-1-1.7-2.8-2.8-4.9-2.8s-3.9 1.1-4.9 2.8v-15.2h-44.2v36h44.2v-15.1c1 1.7 2.8 2.8 4.9 2.8s3.9-1.1 4.9-2.8v15.1h44.2v-36h-44.2z"/><circle cx="87" cy="243.2" r="5.7"/></g></svg>