<svg xmlns="http://www.w3.org/2000/svg" viewBox="0 0 841.9 595.3"><path fill="none" stroke="#231F20" stroke-width=".028" d="M434.4 350.5H440.7l11.7-.3c.5 0 .9.7.9 1.2v2.3l-12.7.3c-.6 0-1.1.5-1.1 1.1v1.1c0 .6.5 1.1 1.1 1.1l12.6-.3v6.8c0 .5-.4.9-.9.9h-12.7c-.5 0-.9-.4-.9-.9v-.6c.2-.2.4-.6.4-.9 0-.8-.6-1.4-1.4-1.4-.8 0-1.4.6-1.4 1.4 0 .4.1.7.4.9v.6c0 .5-.4.9-.9.9h-1.5c-.5 0-.9-.4-.9-.9v-12.3c0-.6.4-1 1-1zM407.5 350.5h-6.4l-11.7-.3c-.5 0-.9.7-.9 1.2v2.3l12.7.3c.6 0 1.1.5 1.1 1.1v1.1c0 .6-.5 1.1-1.1 1.1l-12.6-.3v6.8c0 .5.4.9.9.9H402c.5 0 .9-.4.9-.9v-.6c-.2-.2-.4-.6-.4-.9 0-.8.6-1.4 1.4-1.4.8 0 1.4.6 1.4 1.4 0 .4-.1.7-.4.9v.6c0 .5.4.9.9.9h1.5c.5 0 .9-.4.9-.9v-12.3c.2-.6-.2-1-.7-1zM434.4 320.5H440.7l11.7-.3c.5 0 .9.7.9 1.2v2.3l-12.7.3c-.6 0-1.1.5-1.1 1.1v1.1c0 .6.5 1.1 1.1 1.1l12.6-.3v6.8c0 .5-.4.9-.9.9h-12.7c-.5 0-.9-.4-.9-.9v-.6c.2-.2.4-.6.4-.9 0-.8-.6-1.4-1.4-1.4-.8 0-1.4.6-1.4 1.4 0 .4.1.7.4.9v.6c0 .5-.4.9-.9.9h-1.5c-.5 0-.9-.4-.9-.9v-12.3c0-.6.4-1 1-1zM407.5 320.5h-6.4l-11.7-.3c-.5 0-.9.7-.9 1.2v2.3l12.7.3c.6 0 1.1.5 1.1 1.1v1.1c0 .6-.5 1.1-1.1 1.1l-12.6-.3v6.8c0 .5.4.9.9.9H402c.5 0 .9-.4.9-.9v-.6c-.2-.2-.4-.6-.4-.9 0-.8.6-1.4 1.4-1.4.8 0 1.4.6 1.4 1.4 0 .4-.1.7-.4.9v.6c0 .5.4.9.9.9h1.5c.5 0 .9-.4.9-.9v-12.3c.2-.6-.2-1-.7-1zM434.4 290.5H440.7l11.7-.3c.5 0 .9.7.9 1.2v2.3l-12.7.3c-.6 0-1.1.5-1.1 1.1v1.1c0 .6.5 1.1 1.1 1.1l12.6-.3v6.8c0 .5-.4.9-.9.9h-12.7c-.5 0-.9-.4-.9-.9v-.6c.2-.2.4-.6.4-.9 0-.8-.6-1.4-1.4-1.4-.8 0-1.4.6-1.4 1.4 0 .4.1.7.4.9v.6c0 .5-.4.9-.9.9h-1.5c-.5 0-.9-.4-.9-.9v-12.3c0-.6.4-1 1-1zM407.5 290.5h-6.4l-11.7-.3c-.5 0-.9.7-.9 1.2v2.3l12.7.3c.6 0 1.1.5 1.1 1.1v1.1c0 .6-.5 1.1-1.1 1.1l-12.6-.3v6.8c0 .5.4.9.9.9H402c.5 0 .9-.4.9-.9v-.6c-.2-.2-.4-.6-.4-.9 0-.8.6-1.4 1.4-1.4.8 0 1.4.6 1.4 1.4 0 .4-.1.7-.4.9v.6c0 .5.4.9.9.9h1.5c.5 0 .9-.4.9-.9v-12.3c.2-.6-.2-1-.7-1zM434.4 260.5H440.7l11.7-.3c.5 0 .9.7.9 1.2v2.3l-12.7.3c-.6 0-1.1.5-1.1 1.1v1.1c0 .6.5 1.1 1.1 1.1l12.6-.3v6.8c0 .5-.4.9-.9.9h-12.7c-.5 0-.9-.4-.9-.9v-.6c.2-.2.4-.6.4-.9 0-.8-.6-1.4-1.4-1.4-.8 0-1.4.6-1.4 1.4 0 .4.1.7.4.9v.6c0 .5-.4.9-.9.9h-1.5c-.5 0-.9-.4-.9-.9v-12.3c0-.6.4-1 1-1zM407.5 260.5h-6.4l-11.7-.3c-.5 0-.9.7-.9 1.2v2.3l12.7.3c.6 0 1.1.5 1.1 1.1v1.1c0 .6-.5 1.1-1.1 1.1l-12.6-.3v6.8c0 .5.4.9.9.9H402c.5 0 .9-.4.9-.9v-.6c-.2-.2-.4-.6-.4-.9 0-.8.6-1.4 1.4-1.4.8 0 1.4.6 1.4 1.4 0 .4-.1.7-.4.9v.6c0 .5.4.9.9.9h1.5c.5 0 .9-.4.9-.9v-12.3c.2-.6-.2-1-.7-1zM434.4 230.5H440.7l11.7-.3c.5 0 .9.7.9 1.2v2.3l-12.7.3c-.6 0-1.1.5-1.1 1.1v1.1c0 .6.5 1.1 1.1 1.1l12.6-.3v6.8c0 .5-.4.9-.9.9h-12.7c-.5 0-.9-.4-.9-.9v-.6c.2-.2.4-.6.4-.9 0-.8-.6-1.4-1.4-1.4-.8 0-1.4.6-1.4 1.4 0 .4.1.7.4.9v.6c0 .5-.4.9-.9.9h-1.5c-.5 0-.9-.4-.9-.9v-12.3c0-.6.4-1 1-1zM407.5 230.5h-6.4l-11.7-.3c-.5 0-.9.7-.9 1.2v2.3l12.7.3c.6 0 1.1.5 1.1 1.1v1.1c0 .6-.5 1.1-1.1 1.1l-12.6-.3v6.8c0 .5.4.9.9.9H402c.5 0 .9-.4.9-.9v-.6c-.2-.2-.4-.6-.4-.9 0-.8.6-1.4 1.4-1.4.8 0 1.4.6 1.4 1.4 0 .4-.1.7-.4.9v.6c0 .5.4.9.9.9h1.5c.5 0 .9-.4.9-.9v-12.3c.2-.6-.2-1-.7-1z"/></svg>